<?xml version="1.0" standalone="no"?>
<!DOCTYPE svg PUBLIC "-//W3C//DTD SVG 20010904//EN"
 "http://www.w3.org/TR/2001/REC-SVG-20010904/DTD/svg10.dtd">
<svg version="1.0" xmlns="http://www.w3.org/2000/svg"
 width="700.000000pt" height="700.000000pt" viewBox="0 0 700.000000 700.000000"
 preserveAspectRatio="xMidYMid meet">
<metadata>
Created by potrace 1.11, written by Peter Selinger 2001-2013
</metadata>
<g transform="translate(0.000000,700.000000) scale(0.100000,-0.100000)"
fill="#000000" stroke="none">
<path d="M588 5835 c0 0 -2 -262 -3 -582 -1 -522 0 -582 14 -585 13 -3 5733
-2 5797 1 20 1 20 2 20 581 0 521 -1 580 -15 581 -11 1 -4953 4 -5813 4z
m1075 -294 l87 -1 0 -290 0 -290 -42 -1 c-140 -2 -529 1 -536 5 -4 2 -7 132
-6 288 l0 283 45 5 c24 3 116 4 204 3 88 -1 199 -2 248 -2z"/>
<path d="M591 4080 c-13 -8 -9 -1160 3 -1161 6 -1 1315 -2 2909 -3 1923 -1
2901 2 2905 9 4 6 7 268 8 583 0 513 -1 572 -15 573 -62 4 -5804 3 -5810 -1z
m1159 -580 l0 -290 -292 0 -293 0 2 287 c1 159 2 289 2 291 1 1 132 2 291 2
l290 0 0 -290z"/>
<path d="M598 2332 c-13 -3 -15 -72 -14 -584 l1 -582 2900 -1 c1595 0 2907 1
2916 3 14 3 15 65 15 583 0 402 -3 579 -10 580 -31 2 -5795 4 -5808 1z m1130
-291 l22 -1 0 -290 0 -290 -145 -1 c-181 0 -232 0 -347 0 l-93 1 2 282 c1 156
2 288 2 293 1 8 330 11 559 6z"/>
</g>
</svg>
